<svg xmlns="http://www.w3.org/2000/svg" width="1200" height="800" viewBox="0 0 1200 800">
  <rect width="1200" height="800" fill="#ffffff"/>
  <rect x="80" y="60" width="1040" height="260" fill="#60a5fa" data-category="hero"/>
  <text x="80" y="350" font-size="22" fill="#0f172a" data-category="hero">HERO</text>
  <rect x="80" y="420" width="320" height="200" fill="#3b82f6" data-category="c1"/>
  <text x="80" y="650" font-size="22" fill="#0f172a" data-category="c1">card 1</text>
  <rect x="440" y="420" width="320" height="200" fill="#2563eb" data-category="c2"/>
  <text x="440" y="650" font-size="22" fill="#0f172a" data-category="c2">card 2</text>
  <rect x="800" y="420" width="320" height="200" fill="#4f46e5" data-category="c3"/>
  <text x="800" y="650" font-size="22" fill="#0f172a" data-category="c3">card 3</text>
  <rect x="2" y="2" width="96" height="96" fill="#cbd5e1" data-category="fill-0"/>
  <rect x="102" y="2" width="96" height="96" fill="#cbd5e1" data-category="fill-1"/>
  <rect x="202" y="2" width="96" height="96" fill="#cbd5e1" data-category="fill-2"/>
  <rect x="302" y="2" width="96" height="96" fill="#cbd5e1" data-category="fill-3"/>
  <rect x="402" y="2" width="96" height="96" fill="#cbd5e1" data-category="fill-4"/>
  <rect x="502" y="2" width="96" height="96" fill="#cbd5e1" data-category="fill-5"/>
  <rect x="602" y="2" width="96" height="96" fill="#cbd5e1" data-category="fill-6"/>
  <rect x="702" y="2" width="96" height="96" fill="#cbd5e1" data-category="fill-7"/>
  <rect x="802" y="2" width="96" height="96" fill="#cbd5e1" data-category="fill-8"/>
  <rect x="902" y="2" width="96" height="96" fill="#cbd5e1" data-category="fill-9"/>
  <rect x="1002" y="2" width="96" height="96" fill="#cbd5e1" data-category="fill-10"/>
  <rect x="1102" y="2" width="96" height="96" fill="#cbd5e1" data-category="fill-11"/>
  <rect x="2" y="102" width="96" height="96" fill="#cbd5e1" data-category="fill-12"/>
  <rect x="102" y="102" width="96" height="96" fill="#cbd5e1" data-category="fill-13"/>
  <rect x="202" y="102" width="96" height="96" fill="#cbd5e1" data-category="fill-14"/>
  <rect x="302" y="102" width="96" height="96" fill="#cbd5e1" data-category="fill-15"/>
  <rect x="402" y="102" width="96" height="96" fill="#cbd5e1" data-category="fill-16"/>
  <rect x="502" y="102" width="96" height="96" fill="#cbd5e1" data-category="fill-17"/>
  <rect x="602" y="102" width="96" height="96" fill="#cbd5e1" data-category="fill-18"/>
  <rect x="702" y="102" width="96" height="96" fill="#cbd5e1" data-category="fill-19"/>
  <rect x="802" y="102" width="96" height="96" fill="#cbd5e1" data-category="fill-20"/>
  <rect x="902" y="102" width="96" height="96" fill="#cbd5e1" data-category="fill-21"/>
  <rect x="1002" y="102" width="96" height="96" fill="#cbd5e1" data-category="fill-22"/>
  <rect x="1102" y="102" width="96" height="96" fill="#cbd5e1" data-category="fill-23"/>
  <rect x="2" y="202" width="96" height="96" fill="#cbd5e1" data-category="fill-24"/>
  <rect x="102" y="202" width="96" height="96" fill="#cbd5e1" data-category="fill-25"/>
  <rect x="202" y="202" width="96" height="96" fill="#cbd5e1" data-category="fill-26"/>
  <rect x="302" y="202" width="96" height="96" fill="#cbd5e1" data-category="fill-27"/>
  <rect x="402" y="202" width="96" height="96" fill="#cbd5e1" data-category="fill-28"/>
  <rect x="502" y="202" width="96" height="96" fill="#cbd5e1" data-category="fill-29"/>
  <rect x="602" y="202" width="96" height="96" fill="#cbd5e1" data-category="fill-30"/>
  <rect x="702" y="202" width="96" height="96" fill="#cbd5e1" data-category="fill-31"/>
  <rect x="802" y="202" width="96" height="96" fill="#cbd5e1" data-category="fill-32"/>
  <rect x="902" y="202" width="96" height="96" fill="#cbd5e1" data-category="fill-33"/>
  <rect x="1002" y="202" width="96" height="96" fill="#cbd5e1" data-category="fill-34"/>
  <rect x="1102" y="202" width="96" height="96" fill="#cbd5e1" data-category="fill-35"/>
  <rect x="2" y="302" width="96" height="96" fill="#cbd5e1" data-category="fill-36"/>
  <rect x="102" y="302" width="96" height="96" fill="#cbd5e1" data-category="fill-37"/>
  <rect x="202" y="302" width="96" height="96" fill="#cbd5e1" data-category="fill-38"/>
  <rect x="302" y="302" width="96" height="96" fill="#cbd5e1" data-category="fill-39"/>
  <rect x="402" y="302" width="96" height="96" fill="#cbd5e1" data-category="fill-40"/>
  <rect x="502" y="302" width="96" height="96" fill="#cbd5e1" data-category="fill-41"/>
  <rect x="602" y="302" width="96" height="96" fill="#cbd5e1" data-category="fill-42"/>
  <rect x="702" y="302" width="96" height="96" fill="#cbd5e1" data-category="fill-43"/>
  <rect x="802" y="302" width="96" height="96" fill="#cbd5e1" data-category="fill-44"/>
  <rect x="902" y="302" width="96" height="96" fill="#cbd5e1" data-category="fill-45"/>
  <rect x="1002" y="302" width="96" height="96" fill="#cbd5e1" data-category="fill-46"/>
  <rect x="1102" y="302" width="96" height="96" fill="#cbd5e1" data-category="fill-47"/>
  <rect x="2" y="402" width="96" height="96" fill="#cbd5e1" data-category="fill-48"/>
  <rect x="102" y="402" width="96" height="96" fill="#cbd5e1" data-category="fill-49"/>
  <rect x="202" y="402" width="96" height="96" fill="#cbd5e1" data-category="fill-50"/>
  <rect x="302" y="402" width="96" height="96" fill="#cbd5e1" data-category="fill-51"/>
  <rect x="402" y="402" width="96" height="96" fill="#cbd5e1" data-category="fill-52"/>
  <rect x="502" y="402" width="96" height="96" fill="#cbd5e1" data-category="fill-53"/>
  <rect x="602" y="402" width="96" height="96" fill="#cbd5e1" data-category="fill-54"/>
  <rect x="702" y="402" width="96" height="96" fill="#cbd5e1" data-category="fill-55"/>
  <rect x="802" y="402" width="96" height="96" fill="#cbd5e1" data-category="fill-56"/>
  <rect x="902" y="402" width="96" height="96" fill="#cbd5e1" data-category="fill-57"/>
  <rect x="1002" y="402" width="96" height="96" fill="#cbd5e1" data-category="fill-58"/>
  <rect x="1102" y="402" width="96" height="96" fill="#cbd5e1" data-category="fill-59"/>
  <rect x="2" y="502" width="96" height="96" fill="#cbd5e1" data-category="fill-60"/>
  <rect x="102" y="502" width="96" height="96" fill="#cbd5e1" data-category="fill-61"/>
  <rect x="202" y="502" width="96" height="96" fill="#cbd5e1" data-category="fill-62"/>
  <rect x="302" y="502" width="96" height="96" fill="#cbd5e1" data-category="fill-63"/>
  <rect x="402" y="502" width="96" height="96" fill="#cbd5e1" data-category="fill-64"/>
  <rect x="502" y="502" width="96" height="96" fill="#cbd5e1" data-category="fill-65"/>
  <rect x="602" y="502" width="96" height="96" fill="#cbd5e1" data-category="fill-66"/>
  <rect x="702" y="502" width="96" height="96" fill="#cbd5e1" data-category="fill-67"/>
  <rect x="802" y="502" width="96" height="96" fill="#cbd5e1" data-category="fill-68"/>
  <rect x="902" y="502" width="96" height="96" fill="#cbd5e1" data-category="fill-69"/>
  <rect x="1002" y="502" width="96" height="96" fill="#cbd5e1" data-category="fill-70"/>
  <rect x="1102" y="502" width="96" height="96" fill="#cbd5e1" data-category="fill-71"/>
  <rect x="2" y="602" width="96" height="96" fill="#cbd5e1" data-category="fill-72"/>
  <rect x="102" y="602" width="96" height="96" fill="#cbd5e1" data-category="fill-73"/>
  <rect x="202" y="602" width="96" height="96" fill="#cbd5e1" data-category="fill-74"/>
  <rect x="302" y="602" width="96" height="96" fill="#cbd5e1" data-category="fill-75"/>
  <rect x="402" y="602" width="96" height="96" fill="#cbd5e1" data-category="fill-76"/>
  <rect x="502" y="602" width="96" height="96" fill="#cbd5e1" data-category="fill-77"/>
  <rect x="602" y="602" width="96" height="96" fill="#cbd5e1" data-category="fill-78"/>
  <rect x="702" y="602" width="96" height="96" fill="#cbd5e1" data-category="fill-79"/>
  <rect x="802" y="602" width="96" height="96" fill="#cbd5e1" data-category="fill-80"/>
  <rect x="902" y="602" width="96" height="96" fill="#cbd5e1" data-category="fill-81"/>
  <rect x="1002" y="602" width="96" height="96" fill="#cbd5e1" data-category="fill-82"/>
  <rect x="1102" y="602" width="96" height="96" fill="#cbd5e1" data-category="fill-83"/>
  <rect x="2" y="702" width="96" height="96" fill="#cbd5e1" data-category="fill-84"/>
  <rect x="102" y="702" width="96" height="96" fill="#cbd5e1" data-category="fill-85"/>
  <rect x="202" y="702" width="96" height="96" fill="#cbd5e1" data-category="fill-86"/>
  <rect x="302" y="702" width="96" height="96" fill="#cbd5e1" data-category="fill-87"/>
  <rect x="402" y="702" width="96" height="96" fill="#cbd5e1" data-category="fill-88"/>
  <rect x="502" y="702" width="96" height="96" fill="#cbd5e1" data-category="fill-89"/>
  <rect x="602" y="702" width="96" height="96" fill="#cbd5e1" data-category="fill-90"/>
  <rect x="702" y="702" width="96" height="96" fill="#cbd5e1" data-category="fill-91"/>
  <rect x="802" y="702" width="96" height="96" fill="#cbd5e1" data-category="fill-92"/>
  <rect x="902" y="702" width="96" height="96" fill="#cbd5e1" data-category="fill-93"/>
  <rect x="1002" y="702" width="96" height="96" fill="#cbd5e1" data-category="fill-94"/>
  <rect x="1102" y="702" width="96" height="96" fill="#cbd5e1" data-category="fill-95"/>
</svg>