<svg xmlns="http://www.w3.org/2000/svg" width="1200" height="800" viewBox="0 0 1200 800">
  <rect width="1200" height="800" fill="#ffffff"/>
  <rect x="80" y="295" width="280" height="170" fill="#60a5fa" data-category="c1"/>
  <text x="80" y="495" font-size="22" fill="#0f172a" data-category="c1">card 1</text>
  <rect x="460" y="295" width="280" height="170" fill="#3b82f6" data-category="c2"/>
  <text x="460" y="495" font-size="22" fill="#0f172a" data-category="c2">card 2</text>
  <rect x="840" y="295" width="280" height="170" fill="#2563eb" data-category="c3"/>
  <text x="840" y="495" font-size="22" fill="#0f172a" data-category="c3">card 3</text>
  <rect x="2" y="2" width="129.33" height="129.33" fill="#cbd5e1" data-category="fill-0"/>
  <rect x="135.33" y="2" width="129.33" height="129.33" fill="#cbd5e1" data-category="fill-1"/>
  <rect x="268.67" y="2" width="129.33" height="129.33" fill="#cbd5e1" data-category="fill-2"/>
  <rect x="402" y="2" width="129.33" height="129.33" fill="#cbd5e1" data-category="fill-3"/>
  <rect x="535.33" y="2" width="129.33" height="129.33" fill="#cbd5e1" data-category="fill-4"/>
  <rect x="668.67" y="2" width="129.33" height="129.33" fill="#cbd5e1" data-category="fill-5"/>
  <rect x="802" y="2" width="129.33" height="129.33" fill="#cbd5e1" data-category="fill-6"/>
  <rect x="935.33" y="2" width="129.33" height="129.33" fill="#cbd5e1" data-category="fill-7"/>
  <rect x="1068.67" y="2" width="129.33" height="129.33" fill="#cbd5e1" data-category="fill-8"/>
  <rect x="2" y="135.33" width="129.33" height="129.33" fill="#cbd5e1" data-category="fill-9"/>
  <rect x="135.33" y="135.33" width="129.33" height="129.33" fill="#cbd5e1" data-category="fill-10"/>
  <rect x="268.67" y="135.33" width="129.33" height="129.33" fill="#cbd5e1" data-category="fill-11"/>
  <rect x="402" y="135.33" width="129.33" height="129.33" fill="#cbd5e1" data-category="fill-12"/>
  <rect x="535.33" y="135.33" width="129.33" height="129.33" fill="#cbd5e1" data-category="fill-13"/>
  <rect x="668.67" y="135.33" width="129.33" height="129.33" fill="#cbd5e1" data-category="fill-14"/>
  <rect x="802" y="135.33" width="129.33" height="129.33" fill="#cbd5e1" data-category="fill-15"/>
  <rect x="935.33" y="135.33" width="129.33" height="129.33" fill="#cbd5e1" data-category="fill-16"/>
  <rect x="1068.67" y="135.33" width="129.33" height="129.33" fill="#cbd5e1" data-category="fill-17"/>
  <rect x="2" y="268.67" width="129.33" height="129.33" fill="#cbd5e1" data-category="fill-18"/>
  <rect x="135.33" y="268.67" width="129.33" height="129.33" fill="#cbd5e1" data-category="fill-19"/>
  <rect x="268.67" y="268.67" width="129.33" height="129.33" fill="#cbd5e1" data-category="fill-20"/>
  <rect x="402" y="268.67" width="129.33" height="129.33" fill="#cbd5e1" data-category="fill-21"/>
  <rect x="535.33" y="268.67" width="129.33" height="129.33" fill="#cbd5e1" data-category="fill-22"/>
  <rect x="668.67" y="268.67" width="129.33" height="129.33" fill="#cbd5e1" data-category="fill-23"/>
  <rect x="802" y="268.67" width="129.33" height="129.33" fill="#cbd5e1" data-category="fill-24"/>
  <rect x="935.33" y="268.67" width="129.33" height="129.33" fill="#cbd5e1" data-category="fill-25"/>
  <rect x="1068.67" y="268.67" width="129.33" height="129.33" fill="#cbd5e1" data-category="fill-26"/>
  <rect x="2" y="402" width="129.33" height="129.33" fill="#cbd5e1" data-category="fill-27"/>
  <rect x="135.33" y="402" width="129.33" height="129.33" fill="#cbd5e1" data-category="fill-28"/>
  <rect x="268.67" y="402" width="129.33" height="129.33" fill="#cbd5e1" data-category="fill-29"/>
  <rect x="402" y="402" width="129.33" height="129.33" fill="#cbd5e1" data-category="fill-30"/>
  <rect x="535.33" y="402" width="129.33" height="129.33" fill="#cbd5e1" data-category="fill-31"/>
  <rect x="668.67" y="402" width="129.33" height="129.33" fill="#cbd5e1" data-category="fill-32"/>
  <rect x="802" y="402" width="129.33" height="129.33" fill="#cbd5e1" data-category="fill-33"/>
  <rect x="935.33" y="402" width="129.33" height="129.33" fill="#cbd5e1" data-category="fill-34"/>
  <rect x="1068.67" y="402" width="129.33" height="129.33" fill="#cbd5e1" data-category="fill-35"/>
  <rect x="2" y="535.33" width="129.33" height="129.33" fill="#cbd5e1" data-category="fill-36"/>
  <rect x="135.33" y="535.33" width="129.33" height="129.33" fill="#cbd5e1" data-category="fill-37"/>
  <rect x="268.67" y="535.33" width="129.33" height="129.33" fill="#cbd5e1" data-category="fill-38"/>
  <rect x="402" y="535.33" width="129.33" height="129.33" fill="#cbd5e1" data-category="fill-39"/>
  <rect x="535.33" y="535.33" width="129.33" height="129.33" fill="#cbd5e1" data-category="fill-40"/>
  <rect x="668.67" y="535.33" width="129.33" height="129.33" fill="#cbd5e1" data-category="fill-41"/>
  <rect x="802" y="535.33" width="129.33" height="129.33" fill="#cbd5e1" data-category="fill-42"/>
  <rect x="935.33" y="535.33" width="129.33" height="129.33" fill="#cbd5e1" data-category="fill-43"/>
  <rect x="1068.67" y="535.33" width="129.33" height="129.33" fill="#cbd5e1" data-category="fill-44"/>
  <rect x="2" y="668.67" width="129.33" height="129.33" fill="#cbd5e1" data-category="fill-45"/>
  <rect x="135.33" y="668.67" width="129.33" height="129.33" fill="#cbd5e1" data-category="fill-46"/>
  <rect x="268.67" y="668.67" width="129.33" height="129.33" fill="#cbd5e1" data-category="fill-47"/>
  <rect x="402" y="668.67" width="129.33" height="129.33" fill="#cbd5e1" data-category="fill-48"/>
  <rect x="535.33" y="668.67" width="129.33" height="129.33" fill="#cbd5e1" data-category="fill-49"/>
  <rect x="668.67" y="668.67" width="129.33" height="129.33" fill="#cbd5e1" data-category="fill-50"/>
  <rect x="802" y="668.67" width="129.33" height="129.33" fill="#cbd5e1" data-category="fill-51"/>
  <rect x="935.33" y="668.67" width="129.33" height="129.33" fill="#cbd5e1" data-category="fill-52"/>
  <rect x="1068.67" y="668.67" width="129.33" height="129.33" fill="#cbd5e1" data-category="fill-53"/>
</svg>